<svg width="188" height="232" viewBox="0 0 188 232" fill="none" xmlns="http://www.w3.org/2000/svg">
<g opacity="0.2">
<path d="M93.2079 -102.742C114.029 -75.8653 125.272 -42.8012 125.151 -8.8028C125.029 25.1956 113.55 58.1785 92.5367 84.9059C71.5235 111.633 42.1815 130.572 9.17218 138.714C-23.8372 146.856 -58.6207 143.734 -89.6525 129.844" stroke="#415270"/>
<path d="M16.7775 -106.953C44.9522 -87.9237 65.9601 -60.0255 76.4638 -27.6901C86.9676 4.64536 86.3647 39.5635 74.751 71.5171C63.1373 103.471 41.1789 130.627 12.3641 148.672C-16.4507 166.717 -50.4691 174.615 -84.2868 171.113" stroke="#415270"/>
<path d="M43.7775 -176.952C71.9522 -157.924 92.9601 -130.025 103.464 -97.69C113.968 -65.3546 113.365 -30.4365 101.751 1.5171C90.1373 33.4707 68.1789 60.627 39.3641 78.6719C10.5493 96.7168 -23.4691 104.615 -57.2868 101.113" stroke="#415270"/>
<path d="M-60.6784 -126.925C-31.521 -119.019 -5.8417 -101.596 12.2801 -77.4248C30.4018 -53.2534 39.9267 -23.7195 39.3414 6.48509C38.7561 36.6896 28.0943 65.8324 9.04972 89.2837C-9.99484 112.735 -36.3299 129.15 -65.7716 135.92" stroke="#415270"/>
</g>
</svg>
