<svg width="187" height="24" viewBox="0 0 187 24" fill="none" xmlns="http://www.w3.org/2000/svg">
<path d="M7.72 13.624L4.168 17.272V23H0.00800014V0.599998H4.168V12.088L15.24 0.599998H19.912L10.504 10.616L20.488 23H15.624L7.72 13.624ZM39.1905 5.912V23H35.3825V20.792C34.7212 21.6027 33.8998 22.2107 32.9185 22.616C31.9585 23.0213 30.8918 23.224 29.7185 23.224C28.0545 23.224 26.5612 22.8613 25.2385 22.136C23.9372 21.4107 22.9132 20.3867 22.1665 19.064C21.4412 17.7413 21.0785 16.2053 21.0785 14.456C21.0785 12.7067 21.4412 11.1813 22.1665 9.88C22.9132 8.55733 23.9372 7.53333 25.2385 6.808C26.5612 6.08267 28.0545 5.72 29.7185 5.72C30.8278 5.72 31.8412 5.912 32.7585 6.296C33.6972 6.68 34.5078 7.24533 35.1905 7.992V5.912H39.1905ZM30.1665 19.8C31.6385 19.8 32.8545 19.3093 33.8145 18.328C34.7745 17.3467 35.2545 16.056 35.2545 14.456C35.2545 12.856 34.7745 11.5653 33.8145 10.584C32.8545 9.60267 31.6385 9.112 30.1665 9.112C28.6945 9.112 27.4785 9.60267 26.5185 10.584C25.5798 11.5653 25.1105 12.856 25.1105 14.456C25.1105 16.056 25.5798 17.3467 26.5185 18.328C27.4785 19.3093 28.6945 19.8 30.1665 19.8ZM54.324 22.072C53.8547 22.456 53.2787 22.744 52.596 22.936C51.9347 23.128 51.2307 23.224 50.484 23.224C48.6067 23.224 47.156 22.7333 46.132 21.752C45.108 20.7707 44.596 19.3413 44.596 17.464V2.136H48.596V6.04H53.172V9.24H48.596V17.368C48.596 18.2 48.7987 18.84 49.204 19.288C49.6307 19.7147 50.2173 19.928 50.964 19.928C51.86 19.928 52.6067 19.6933 53.204 19.224L54.324 22.072ZM63.2103 23.224C61.8236 23.224 60.4689 23.0427 59.1463 22.68C57.8236 22.3173 56.7676 21.8587 55.9783 21.304L57.5143 18.264C58.2823 18.776 59.1996 19.192 60.2663 19.512C61.3543 19.8107 62.4209 19.96 63.4663 19.96C65.8556 19.96 67.0503 19.3307 67.0503 18.072C67.0503 17.4747 66.7409 17.0587 66.1223 16.824C65.5249 16.5893 64.5543 16.3653 63.2103 16.152C61.8023 15.9387 60.6503 15.6933 59.7543 15.416C58.8796 15.1387 58.1116 14.6587 57.4503 13.976C56.8103 13.272 56.4903 12.3013 56.4903 11.064C56.4903 9.44267 57.1623 8.152 58.5063 7.192C59.8716 6.21067 61.7063 5.72 64.0103 5.72C65.1836 5.72 66.3569 5.85867 67.5303 6.136C68.7036 6.392 69.6636 6.744 70.4103 7.192L68.8743 10.232C67.4236 9.37867 65.7916 8.952 63.9783 8.952C62.8049 8.952 61.9089 9.13333 61.2903 9.496C60.6929 9.83733 60.3943 10.296 60.3943 10.872C60.3943 11.512 60.7143 11.9707 61.3543 12.248C62.0156 12.504 63.0289 12.7493 64.3943 12.984C65.7596 13.1973 66.8796 13.4427 67.7543 13.72C68.6289 13.9973 69.3756 14.4667 69.9943 15.128C70.6343 15.7893 70.9543 16.728 70.9543 17.944C70.9543 19.544 70.2609 20.824 68.8743 21.784C67.4876 22.744 65.5996 23.224 63.2103 23.224ZM91.243 5.912V23H87.435V20.824C86.795 21.592 85.995 22.1893 85.035 22.616C84.075 23.0213 83.0403 23.224 81.931 23.224C79.6483 23.224 77.8457 22.5947 76.523 21.336C75.2217 20.056 74.571 18.168 74.571 15.672V5.912H78.571V15.128C78.571 16.664 78.9123 17.816 79.595 18.584C80.299 19.3307 81.291 19.704 82.571 19.704C84.0003 19.704 85.131 19.2667 85.963 18.392C86.8163 17.496 87.243 16.216 87.243 14.552V5.912H91.243Z" fill="#415270"/>
<path d="M99.5003 9.464C100.034 8.33333 100.823 7.48 101.868 6.904C102.935 6.328 104.247 6.04 105.804 6.04V8.248L105.26 8.216C103.49 8.216 102.103 8.76 101.1 9.848C100.098 10.936 99.5963 12.4613 99.5963 14.424V23H97.3243V6.168H99.5003V9.464ZM116.942 23.16C115.32 23.16 113.859 22.7973 112.558 22.072C111.256 21.3253 110.232 20.3013 109.486 19C108.739 17.6987 108.366 16.2267 108.366 14.584C108.366 12.9413 108.739 11.4693 109.486 10.168C110.232 8.86667 111.256 7.85333 112.558 7.128C113.859 6.40267 115.32 6.04 116.942 6.04C118.563 6.04 120.024 6.40267 121.326 7.128C122.627 7.85333 123.64 8.86667 124.366 10.168C125.112 11.4693 125.486 12.9413 125.486 14.584C125.486 16.2267 125.112 17.6987 124.366 19C123.64 20.3013 122.627 21.3253 121.326 22.072C120.024 22.7973 118.563 23.16 116.942 23.16ZM116.942 21.144C118.136 21.144 119.203 20.8773 120.142 20.344C121.102 19.7893 121.848 19.0107 122.382 18.008C122.915 17.0053 123.182 15.864 123.182 14.584C123.182 13.304 122.915 12.1627 122.382 11.16C121.848 10.1573 121.102 9.38933 120.142 8.856C119.203 8.30133 118.136 8.024 116.942 8.024C115.747 8.024 114.67 8.30133 113.71 8.856C112.771 9.38933 112.024 10.1573 111.47 11.16C110.936 12.1627 110.67 13.304 110.67 14.584C110.67 15.864 110.936 17.0053 111.47 18.008C112.024 19.0107 112.771 19.7893 113.71 20.344C114.67 20.8773 115.747 21.144 116.942 21.144ZM137.304 23.16C135.683 23.16 134.222 22.7973 132.92 22.072C131.619 21.3253 130.595 20.3013 129.848 19C129.102 17.6987 128.728 16.2267 128.728 14.584C128.728 12.9413 129.102 11.4693 129.848 10.168C130.595 8.86667 131.619 7.85333 132.92 7.128C134.222 6.40267 135.683 6.04 137.304 6.04C138.926 6.04 140.387 6.40267 141.688 7.128C142.99 7.85333 144.003 8.86667 144.728 10.168C145.475 11.4693 145.848 12.9413 145.848 14.584C145.848 16.2267 145.475 17.6987 144.728 19C144.003 20.3013 142.99 21.3253 141.688 22.072C140.387 22.7973 138.926 23.16 137.304 23.16ZM137.304 21.144C138.499 21.144 139.566 20.8773 140.504 20.344C141.464 19.7893 142.211 19.0107 142.744 18.008C143.278 17.0053 143.544 15.864 143.544 14.584C143.544 13.304 143.278 12.1627 142.744 11.16C142.211 10.1573 141.464 9.38933 140.504 8.856C139.566 8.30133 138.499 8.024 137.304 8.024C136.11 8.024 135.032 8.30133 134.072 8.856C133.134 9.38933 132.387 10.1573 131.832 11.16C131.299 12.1627 131.032 13.304 131.032 14.584C131.032 15.864 131.299 17.0053 131.832 18.008C132.387 19.0107 133.134 19.7893 134.072 20.344C135.032 20.8773 136.11 21.144 137.304 21.144ZM171.779 6.04C173.891 6.04 175.544 6.648 176.739 7.864C177.955 9.08 178.563 10.872 178.563 13.24V23H176.291V13.464C176.291 11.7147 175.864 10.3813 175.011 9.464C174.179 8.54667 172.995 8.088 171.459 8.088C169.709 8.088 168.333 8.632 167.331 9.72C166.328 10.7867 165.827 12.2693 165.827 14.168V23H163.555V13.464C163.555 11.7147 163.128 10.3813 162.275 9.464C161.443 8.54667 160.248 8.088 158.691 8.088C156.963 8.088 155.587 8.632 154.563 9.72C153.56 10.7867 153.059 12.2693 153.059 14.168V23H150.787V6.168H152.963V9.24C153.56 8.216 154.392 7.42667 155.459 6.872C156.525 6.31733 157.752 6.04 159.139 6.04C160.547 6.04 161.763 6.33867 162.787 6.936C163.832 7.53333 164.611 8.41867 165.123 9.592C165.741 8.48267 166.627 7.61867 167.779 7C168.952 6.36 170.285 6.04 171.779 6.04ZM185.248 23.16C184.779 23.16 184.374 22.9893 184.032 22.648C183.712 22.3067 183.552 21.8907 183.552 21.4C183.552 20.9093 183.712 20.504 184.032 20.184C184.374 19.8427 184.779 19.672 185.248 19.672C185.718 19.672 186.123 19.8427 186.464 20.184C186.806 20.504 186.976 20.9093 186.976 21.4C186.976 21.8907 186.806 22.3067 186.464 22.648C186.123 22.9893 185.718 23.16 185.248 23.16Z" fill="#415270" fill-opacity="0.8"/>
</svg>
