<svg width="20" height="20" viewBox="0 0 20 20" fill="none" xmlns="http://www.w3.org/2000/svg">
<path d="M15.707 10.293C15.6142 10.2 15.504 10.1263 15.3827 10.076C15.2614 10.0257 15.1313 9.99976 15 9.99976C14.8687 9.99976 14.7386 10.0257 14.6173 10.076C14.496 10.1263 14.3858 10.2 14.293 10.293L12.699 11.887C11.96 11.667 10.581 11.167 9.707 10.293C8.833 9.41896 8.333 8.03996 8.113 7.30096L9.707 5.70696C9.79994 5.61417 9.87368 5.50397 9.92399 5.38265C9.9743 5.26134 10.0002 5.13129 10.0002 4.99996C10.0002 4.86862 9.9743 4.73858 9.92399 4.61726C9.87368 4.49595 9.79994 4.38575 9.707 4.29296L5.707 0.292957C5.61421 0.200011 5.50401 0.126273 5.38269 0.0759627C5.26138 0.0256519 5.13133 -0.000244141 5 -0.000244141C4.86866 -0.000244141 4.73862 0.0256519 4.6173 0.0759627C4.49599 0.126273 4.38579 0.200011 4.293 0.292957L1.581 3.00496C1.201 3.38496 0.986998 3.90696 0.994998 4.43996C1.018 5.86396 1.395 10.81 5.293 14.708C9.191 18.606 14.137 18.982 15.562 19.006H15.59C16.118 19.006 16.617 18.798 16.995 18.42L19.707 15.708C19.7999 15.6152 19.8737 15.505 19.924 15.3837C19.9743 15.2623 20.0002 15.1323 20.0002 15.001C20.0002 14.8696 19.9743 14.7396 19.924 14.6183C19.8737 14.4969 19.7999 14.3867 19.707 14.294L15.707 10.293ZM15.58 17.005C14.332 16.984 10.062 16.649 6.707 13.293C3.341 9.92696 3.015 5.64196 2.995 4.41896L5 2.41396L7.586 4.99996L6.293 6.29296C6.17546 6.41041 6.08904 6.55529 6.04155 6.71453C5.99406 6.87376 5.987 7.04231 6.021 7.20496C6.045 7.31996 6.632 10.047 8.292 11.707C9.952 13.367 12.679 13.954 12.794 13.978C12.9565 14.0129 13.1253 14.0064 13.2846 13.9591C13.444 13.9117 13.5889 13.825 13.706 13.707L15 12.414L17.586 15L15.58 17.005Z" fill="white" fill-opacity="0.8"/>
</svg>
