<svg width="24" height="24" viewBox="0 0 24 24" fill="none" xmlns="http://www.w3.org/2000/svg">
<g opacity="0.8">
<path d="M12 14C14.206 14 16 12.206 16 10C16 7.794 14.206 6 12 6C9.794 6 8 7.794 8 10C8 12.206 9.794 14 12 14ZM12 8C13.103 8 14 8.897 14 10C14 11.103 13.103 12 12 12C10.897 12 10 11.103 10 10C10 8.897 10.897 8 12 8Z" fill="white"/>
<path d="M11.42 21.814C11.5892 21.9349 11.792 21.9998 12 21.9998C12.208 21.9998 12.4107 21.9349 12.58 21.814C12.884 21.599 20.029 16.44 20 10C20 5.589 16.411 2 12 2C7.589 2 4 5.589 4 9.995C3.971 16.44 11.116 21.599 11.42 21.814ZM12 4C15.309 4 18 6.691 18 10.005C18.021 14.443 13.612 18.428 12 19.735C10.389 18.427 5.979 14.441 6 10C6 6.691 8.691 4 12 4Z" fill="white"/>
</g>
</svg>
