<svg width="86" height="118" viewBox="0 0 86 118" fill="none" xmlns="http://www.w3.org/2000/svg">
<g opacity="0.6">
<circle cx="3" cy="3" r="3" fill="#415270" fill-opacity="0.8"/>
<circle cx="3" cy="67" r="3" fill="#415270" fill-opacity="0.8"/>
<circle cx="3" cy="35" r="3" fill="#415270" fill-opacity="0.8"/>
<circle cx="3" cy="99" r="3" fill="#415270" fill-opacity="0.8"/>
<circle cx="3" cy="19" r="3" fill="#415270" fill-opacity="0.8"/>
<circle cx="3" cy="83" r="3" fill="#415270" fill-opacity="0.8"/>
<circle cx="3" cy="51" r="3" fill="#415270" fill-opacity="0.8"/>
<circle cx="3" cy="115" r="3" fill="#415270" fill-opacity="0.8"/>
<circle cx="35" cy="3" r="3" fill="#415270" fill-opacity="0.8"/>
<circle cx="35" cy="67" r="3" fill="#415270" fill-opacity="0.8"/>
<circle cx="35" cy="35" r="3" fill="#415270" fill-opacity="0.8"/>
<circle cx="35" cy="99" r="3" fill="#415270" fill-opacity="0.8"/>
<circle cx="35" cy="19" r="3" fill="#415270" fill-opacity="0.8"/>
<circle cx="35" cy="83" r="3" fill="#415270" fill-opacity="0.8"/>
<circle cx="35" cy="51" r="3" fill="#415270" fill-opacity="0.8"/>
<circle cx="35" cy="115" r="3" fill="#415270" fill-opacity="0.8"/>
<circle cx="67" cy="3" r="3" fill="#415270" fill-opacity="0.8"/>
<circle cx="67" cy="67" r="3" fill="#415270" fill-opacity="0.8"/>
<circle cx="67" cy="35" r="3" fill="#415270" fill-opacity="0.8"/>
<circle cx="67" cy="99" r="3" fill="#415270" fill-opacity="0.8"/>
<circle cx="67" cy="19" r="3" fill="#415270" fill-opacity="0.8"/>
<circle cx="67" cy="83" r="3" fill="#415270" fill-opacity="0.8"/>
<circle cx="67" cy="51" r="3" fill="#415270" fill-opacity="0.8"/>
<circle cx="67" cy="115" r="3" fill="#415270" fill-opacity="0.8"/>
<circle cx="19" cy="3" r="3" fill="#415270" fill-opacity="0.8"/>
<circle cx="19" cy="67" r="3" fill="#415270" fill-opacity="0.8"/>
<circle cx="19" cy="35" r="3" fill="#415270" fill-opacity="0.8"/>
<circle cx="19" cy="99" r="3" fill="#415270" fill-opacity="0.8"/>
<circle cx="19" cy="19" r="3" fill="#415270" fill-opacity="0.8"/>
<circle cx="19" cy="83" r="3" fill="#415270" fill-opacity="0.8"/>
<circle cx="19" cy="51" r="3" fill="#415270" fill-opacity="0.8"/>
<circle cx="19" cy="115" r="3" fill="#415270" fill-opacity="0.8"/>
<circle cx="51" cy="3" r="3" fill="#415270" fill-opacity="0.8"/>
<circle cx="51" cy="67" r="3" fill="#415270" fill-opacity="0.8"/>
<circle cx="51" cy="35" r="3" fill="#415270" fill-opacity="0.8"/>
<circle cx="51" cy="99" r="3" fill="#415270" fill-opacity="0.8"/>
<circle cx="51" cy="19" r="3" fill="#415270" fill-opacity="0.8"/>
<circle cx="51" cy="83" r="3" fill="#415270" fill-opacity="0.8"/>
<circle cx="51" cy="51" r="3" fill="#415270" fill-opacity="0.8"/>
<circle cx="51" cy="115" r="3" fill="#415270" fill-opacity="0.8"/>
<circle cx="83" cy="3" r="3" fill="#415270" fill-opacity="0.8"/>
<circle cx="83" cy="67" r="3" fill="#415270" fill-opacity="0.8"/>
<circle cx="83" cy="35" r="3" fill="#415270" fill-opacity="0.8"/>
<circle cx="83" cy="99" r="3" fill="#415270" fill-opacity="0.8"/>
<circle cx="83" cy="19" r="3" fill="#415270" fill-opacity="0.8"/>
<circle cx="83" cy="83" r="3" fill="#415270" fill-opacity="0.8"/>
<circle cx="83" cy="51" r="3" fill="#415270" fill-opacity="0.8"/>
<circle cx="83" cy="115" r="3" fill="#415270" fill-opacity="0.8"/>
</g>
</svg>
