<svg width="41" height="30" viewBox="0 0 41 30" fill="none" xmlns="http://www.w3.org/2000/svg">
<path d="M9.99999 12.0001C9.55399 12.0001 9.12599 12.0681 8.69999 12.1301C8.83799 11.6661 8.97999 11.1941 9.20799 10.7701C9.43599 10.1541 9.79199 9.62006 10.146 9.08206C10.442 8.50006 10.964 8.10606 11.348 7.60806C11.75 7.12406 12.298 6.80206 12.732 6.40006C13.158 5.98006 13.716 5.77006 14.16 5.47406C14.624 5.20806 15.028 4.91406 15.46 4.77406L16.538 4.33006L17.486 3.93606L16.516 0.0600586L15.322 0.348058C14.94 0.444058 14.474 0.556058 13.944 0.690058C13.402 0.790058 12.824 1.06406 12.18 1.31406C11.544 1.59806 10.808 1.79006 10.124 2.24606C9.43599 2.68206 8.64199 3.04606 7.94199 3.63006C7.26399 4.23206 6.44599 4.75406 5.84199 5.52006C5.18199 6.23606 4.52999 6.98806 4.02399 7.84406C3.43799 8.66006 3.03999 9.55606 2.61999 10.4421C2.23999 11.3281 1.93399 12.2341 1.68399 13.1141C1.20999 14.8781 0.997985 16.5541 0.915985 17.9881C0.847985 19.4241 0.887985 20.6181 0.971985 21.4821C1.00199 21.8901 1.05799 22.2861 1.09799 22.5601L1.14799 22.8961L1.19999 22.8841C1.55571 24.5457 2.37459 26.0727 3.56191 27.2884C4.74923 28.5041 6.25647 29.3588 7.90927 29.7537C9.56206 30.1486 11.2929 30.0675 12.9015 29.5197C14.5101 28.972 15.9308 27.98 16.9992 26.6586C18.0676 25.3372 18.7401 23.7403 18.9388 22.0527C19.1376 20.365 18.8545 18.6556 18.1223 17.1221C17.39 15.5886 16.2387 14.2938 14.8013 13.3874C13.3639 12.4809 11.6993 11.9999 9.99999 12.0001ZM32 12.0001C31.554 12.0001 31.126 12.0681 30.7 12.1301C30.838 11.6661 30.98 11.1941 31.208 10.7701C31.436 10.1541 31.792 9.62006 32.146 9.08206C32.442 8.50006 32.964 8.10606 33.348 7.60806C33.75 7.12406 34.298 6.80206 34.732 6.40006C35.158 5.98006 35.716 5.77006 36.16 5.47406C36.624 5.20806 37.028 4.91406 37.46 4.77406L38.538 4.33006L39.486 3.93606L38.516 0.0600586L37.322 0.348058C36.94 0.444058 36.474 0.556058 35.944 0.690058C35.402 0.790058 34.824 1.06406 34.18 1.31406C33.546 1.60006 32.808 1.79006 32.124 2.24806C31.436 2.68406 30.642 3.04806 29.942 3.63206C29.264 4.23406 28.446 4.75606 27.842 5.52006C27.182 6.23606 26.53 6.98806 26.024 7.84406C25.438 8.66006 25.04 9.55606 24.62 10.4421C24.24 11.3281 23.934 12.2341 23.684 13.1141C23.21 14.8781 22.998 16.5541 22.916 17.9881C22.848 19.4241 22.888 20.6181 22.972 21.4821C23.002 21.8901 23.058 22.2861 23.098 22.5601L23.148 22.8961L23.2 22.8841C23.5557 24.5457 24.3746 26.0727 25.5619 27.2884C26.7492 28.5041 28.2565 29.3588 29.9093 29.7537C31.5621 30.1486 33.2929 30.0675 34.9015 29.5197C36.5101 28.972 37.9308 27.98 38.9992 26.6586C40.0676 25.3372 40.7401 23.7403 40.9388 22.0527C41.1376 20.365 40.8545 18.6556 40.1223 17.1221C39.39 15.5886 38.2387 14.2938 36.8013 13.3874C35.3639 12.4809 33.6993 11.9999 32 12.0001Z" fill="#415270" fill-opacity="0.8"/>
</svg>
