<svg width="106" height="18" viewBox="0 0 106 18" fill="none" xmlns="http://www.w3.org/2000/svg">
<path d="M16.4603 6.88426C16.4131 6.74541 16.3264 6.6234 16.2107 6.53331C16.095 6.44321 15.9554 6.38896 15.8093 6.37726L11.5335 6.03751L9.68327 1.94176C9.62434 1.80985 9.5285 1.6978 9.4073 1.61915C9.28611 1.54051 9.14474 1.49861 9.00026 1.49854C8.85578 1.49846 8.71437 1.54019 8.59309 1.61871C8.47181 1.69722 8.37584 1.80916 8.31677 1.94101L6.46652 6.03751L2.19077 6.37726C2.04711 6.38864 1.90977 6.44117 1.79519 6.52856C1.6806 6.61595 1.59361 6.7345 1.54464 6.87003C1.49566 7.00556 1.48677 7.15234 1.51903 7.29279C1.55128 7.43324 1.62332 7.56143 1.72652 7.66201L4.88627 10.7423L3.76877 15.5813C3.73484 15.7277 3.74571 15.881 3.79998 16.0212C3.85426 16.1615 3.94942 16.2821 4.07312 16.3676C4.19682 16.4531 4.34336 16.4994 4.49371 16.5005C4.64406 16.5016 4.79128 16.4576 4.91627 16.374L9.00002 13.6515L13.0838 16.374C13.2115 16.4588 13.3622 16.5025 13.5155 16.4991C13.6688 16.4958 13.8174 16.4455 13.9413 16.3552C14.0652 16.2649 14.1585 16.1387 14.2086 15.9938C14.2587 15.8489 14.2632 15.6921 14.2215 15.5445L12.8498 10.7445L16.2518 7.68301C16.4745 7.48201 16.5563 7.16851 16.4603 6.88426Z" fill="#FFC90A"/>
<path d="M60.4602 6.88426C60.4131 6.74541 60.3263 6.6234 60.2106 6.53331C60.0949 6.44321 59.9554 6.38896 59.8092 6.37726L55.5335 6.03751L53.6832 1.94176C53.6243 1.80985 53.5285 1.6978 53.4073 1.61915C53.2861 1.54051 53.1447 1.49861 53.0002 1.49854C52.8558 1.49846 52.7143 1.54019 52.5931 1.61871C52.4718 1.69722 52.3758 1.80916 52.3167 1.94101L50.4665 6.03751L46.1907 6.37726C46.0471 6.38864 45.9097 6.44117 45.7952 6.52856C45.6806 6.61595 45.5936 6.7345 45.5446 6.87003C45.4956 7.00556 45.4867 7.15234 45.519 7.29279C45.5513 7.43324 45.6233 7.56143 45.7265 7.66201L48.8862 10.7423L47.7687 15.5813C47.7348 15.7277 47.7457 15.881 47.8 16.0212C47.8542 16.1615 47.9494 16.2821 48.0731 16.3676C48.1968 16.4531 48.3433 16.4994 48.4937 16.5005C48.644 16.5016 48.7912 16.4576 48.9162 16.374L53 13.6515L57.0837 16.374C57.2115 16.4588 57.3622 16.5025 57.5155 16.4991C57.6688 16.4958 57.8174 16.4455 57.9413 16.3552C58.0652 16.2649 58.1585 16.1387 58.2086 15.9938C58.2587 15.8489 58.2632 15.6921 58.2215 15.5445L56.8497 10.7445L60.2517 7.68301C60.4745 7.48201 60.5562 7.16851 60.4602 6.88426Z" fill="#FFC90A"/>
<path d="M38.4602 6.88426C38.4131 6.74541 38.3263 6.6234 38.2106 6.53331C38.0949 6.44321 37.9554 6.38896 37.8092 6.37726L33.5335 6.03751L31.6832 1.94176C31.6243 1.80985 31.5285 1.6978 31.4073 1.61915C31.2861 1.54051 31.1447 1.49861 31.0002 1.49854C30.8558 1.49846 30.7143 1.54019 30.5931 1.61871C30.4718 1.69722 30.3758 1.80916 30.3167 1.94101L28.4665 6.03751L24.1907 6.37726C24.0471 6.38864 23.9097 6.44117 23.7952 6.52856C23.6806 6.61595 23.5936 6.7345 23.5446 6.87003C23.4956 7.00556 23.4867 7.15234 23.519 7.29279C23.5513 7.43324 23.6233 7.56143 23.7265 7.66201L26.8862 10.7423L25.7687 15.5813C25.7348 15.7277 25.7457 15.881 25.8 16.0212C25.8542 16.1615 25.9494 16.2821 26.0731 16.3676C26.1968 16.4531 26.3433 16.4994 26.4937 16.5005C26.644 16.5016 26.7912 16.4576 26.9162 16.374L31 13.6515L35.0837 16.374C35.2115 16.4588 35.3622 16.5025 35.5155 16.4991C35.6688 16.4958 35.8174 16.4455 35.9413 16.3552C36.0652 16.2649 36.1585 16.1387 36.2086 15.9938C36.2587 15.8489 36.2632 15.6921 36.2215 15.5445L34.8497 10.7445L38.2517 7.68301C38.4745 7.48201 38.5562 7.16851 38.4602 6.88426Z" fill="#FFC90A"/>
<path d="M82.4602 6.88426C82.4131 6.74541 82.3263 6.6234 82.2106 6.53331C82.0949 6.44321 81.9554 6.38896 81.8092 6.37726L77.5335 6.03751L75.6832 1.94176C75.6243 1.80985 75.5285 1.6978 75.4073 1.61915C75.2861 1.54051 75.1447 1.49861 75.0002 1.49854C74.8558 1.49846 74.7143 1.54019 74.5931 1.61871C74.4718 1.69722 74.3758 1.80916 74.3167 1.94101L72.4665 6.03751L68.1907 6.37726C68.0471 6.38864 67.9097 6.44117 67.7952 6.52856C67.6806 6.61595 67.5936 6.7345 67.5446 6.87003C67.4956 7.00556 67.4867 7.15234 67.519 7.29279C67.5513 7.43324 67.6233 7.56143 67.7265 7.66201L70.8862 10.7423L69.7687 15.5813C69.7348 15.7277 69.7457 15.881 69.8 16.0212C69.8542 16.1615 69.9494 16.2821 70.0731 16.3676C70.1968 16.4531 70.3433 16.4994 70.4937 16.5005C70.644 16.5016 70.7912 16.4576 70.9162 16.374L75 13.6515L79.0837 16.374C79.2115 16.4588 79.3622 16.5025 79.5155 16.4991C79.6688 16.4958 79.8174 16.4455 79.9413 16.3552C80.0652 16.2649 80.1585 16.1387 80.2086 15.9938C80.2587 15.8489 80.2632 15.6921 80.2215 15.5445L78.8497 10.7445L82.2517 7.68301C82.4745 7.48201 82.5562 7.16851 82.4602 6.88426Z" fill="#FFC90A"/>
<g opacity="0.6">
<path d="M104.46 6.88426C104.413 6.74541 104.326 6.6234 104.211 6.53331C104.095 6.44321 103.955 6.38896 103.809 6.37726L99.5335 6.03751L97.6832 1.94176C97.6243 1.80985 97.5285 1.6978 97.4073 1.61915C97.2861 1.54051 97.1447 1.49861 97.0002 1.49854C96.8558 1.49846 96.7143 1.54019 96.5931 1.61871C96.4718 1.69722 96.3758 1.80916 96.3167 1.94101L94.4665 6.03751L90.1907 6.37726C90.0471 6.38864 89.9097 6.44117 89.7952 6.52856C89.6806 6.61595 89.5936 6.7345 89.5446 6.87003C89.4956 7.00556 89.4867 7.15234 89.519 7.29279C89.5513 7.43324 89.6233 7.56143 89.7265 7.66201L92.8862 10.7423L91.7687 15.5813C91.7348 15.7277 91.7457 15.881 91.8 16.0212C91.8542 16.1615 91.9494 16.2821 92.0731 16.3676C92.1968 16.4531 92.3433 16.4994 92.4937 16.5005C92.644 16.5016 92.7912 16.4576 92.9162 16.374L97 13.6515L101.084 16.374C101.211 16.4588 101.362 16.5025 101.515 16.4991C101.669 16.4958 101.817 16.4455 101.941 16.3552C102.065 16.2649 102.158 16.1387 102.209 15.9938C102.259 15.8489 102.263 15.6921 102.221 15.5445L100.85 10.7445L104.252 7.68301C104.474 7.48201 104.556 7.16851 104.46 6.88426Z" fill="#FFC90A"/>
</g>
</svg>
